<svg class="svg-icon" style="width: 1em; height: 1em;vertical-align: middle;fill: currentColor;overflow: hidden;" viewBox="0 0 1024 1024" version="1.1" xmlns="http://www.w3.org/2000/svg"><path d="M806.912 419.401143q0-16.018286-10.313143-26.258286l-52.004571-51.419429q-10.825143-10.825143-25.746286-10.825143t-25.746286 10.825143l-233.179429 232.594286-129.170286-129.170286q-10.825143-10.825143-25.746286-10.825143t-25.746286 10.825143l-52.004571 51.419429q-10.313143 10.313143-10.313143 26.258286 0 15.433143 10.313143 25.746286l206.848 206.848q10.825143 10.825143 25.746286 10.825143 15.433143 0 26.258286-10.825143l310.272-310.272q10.313143-10.313143 10.313143-25.746286zM950.930286 512q0 119.442286-58.88 220.306286t-159.744 159.744-220.306286 58.88-220.306286-58.88-159.744-159.744-58.88-220.306286 58.88-220.306286 159.744-159.744 220.306286-58.88 220.306286 58.88 159.744 159.744 58.88 220.306286z"  fill="#1453ff"/></svg>